<svg width="28" height="23" viewBox="0 0 28 23" fill="none" xmlns="http://www.w3.org/2000/svg">
<path d="M13.3599 22.4463C14.1222 22.4463 14.6718 21.8487 14.6718 21.0481V1.98814C14.6718 1.18758 14.1222 0.518555 13.3378 0.518555C12.7881 0.518555 12.4183 0.781128 11.8238 1.37873L6.87897 6.36197C6.79725 6.43407 6.69381 6.47222 6.58775 6.46936H3.25711C1.67665 6.46936 0.824219 7.38914 0.824219 9.18194V13.8183C0.824219 15.6111 1.67617 16.5314 3.25759 16.5314H6.58775C6.69961 16.5314 6.80038 16.5674 6.87897 16.6388L11.8238 21.6693C12.3619 22.2073 12.8103 22.4463 13.3599 22.4463ZM24.2028 20.0086C24.6397 20.319 25.1782 20.1997 25.4921 19.7219C26.9723 17.5226 27.8242 14.5953 27.8242 11.5364C27.8242 8.46513 26.9834 5.53725 25.4921 3.33852C25.1671 2.87247 24.6397 2.75274 24.2028 3.06362C23.7766 3.37449 23.7091 3.95976 24.0457 4.4736C25.2679 6.38561 26.0191 8.89521 26.0191 11.5359C26.0191 14.177 25.2901 16.7102 24.0341 18.5986C23.7207 19.1125 23.7766 19.6982 24.2028 20.0086ZM19.7286 16.7817C20.1099 17.0689 20.6591 16.9733 20.9845 16.5073C21.8591 15.2525 22.3861 13.4119 22.3861 11.5359C22.3861 9.66033 21.8481 7.83156 20.9845 6.55312C20.6596 6.08706 20.1215 5.99149 19.7286 6.27821C19.2353 6.62454 19.1789 7.23396 19.5381 7.75962C20.1885 8.69173 20.581 10.114 20.581 11.5364C20.581 12.9582 20.1663 14.38 19.527 15.3239C19.1905 15.8377 19.2464 16.4235 19.7286 16.7822" fill="#FFAF0B"/>
</svg>
