<svg width="34" height="26" viewBox="0 0 34 26" fill="none" xmlns="http://www.w3.org/2000/svg">
<path d="M15.7857 26C16.7456 26 17.4377 25.2914 17.4377 24.3422V1.74251C17.4377 0.79327 16.7456 0 15.7578 0C15.0656 0 14.6 0.311337 13.8514 1.01992L7.6245 6.92862C7.5216 7.01412 7.39134 7.05935 7.25779 7.05596H3.06364C1.07343 7.05596 0 8.14655 0 10.2723V15.7697C0 17.8955 1.07282 18.9867 3.06425 18.9867H7.25779C7.39864 18.9867 7.52554 19.0293 7.6245 19.114L13.8514 25.0788C14.5289 25.7167 15.0936 26 15.7857 26ZM29.4397 23.1096C29.9898 23.4776 30.668 23.3363 31.0632 22.7696C32.9272 20.162 34 16.691 34 13.064C34 9.42236 32.9411 5.95074 31.0632 3.34368C30.654 2.79107 29.9898 2.64911 29.4397 3.01772C28.903 3.38632 28.818 4.08028 29.2418 4.68955C30.7809 6.95665 31.7269 9.93232 31.7269 13.0634C31.7269 16.195 30.8089 19.1987 29.2273 21.4378C28.8326 22.0471 28.903 22.7416 29.4397 23.1096ZM23.8055 19.2834C24.2857 19.624 24.9773 19.5107 25.3871 18.9581C26.4884 17.4702 27.152 15.2878 27.152 13.0634C27.152 10.8395 26.4745 8.67113 25.3871 7.15527C24.9779 6.60266 24.3003 6.48934 23.8055 6.82931C23.1844 7.23996 23.1133 7.96255 23.5656 8.58584C24.3847 9.69105 24.8789 11.3775 24.8789 13.064C24.8789 14.7498 24.3568 16.4357 23.5517 17.5549C23.1279 18.1642 23.1983 18.8587 23.8055 19.284" fill="#203E83"/>
</svg>
